<?xml version="1.0" encoding="UTF-8"?>
<svg id="Vrstva_2" data-name="Vrstva 2" xmlns="http://www.w3.org/2000/svg" viewBox="0 0 1370.88 361.53">
  <defs>
    <style>
      .cls-1 {
        fill: #004981;
        stroke-width: 0px;
      }
    </style>
  </defs>
  <g id="Vrstva_1-2" data-name="Vrstva 1">
    <g>
      <path class="cls-1" d="M32.09,189.86C10.7,172.03,0,144.93,0,108.74c0-23.17,4.81-42.78,14.62-59.01,9.8-16.22,24.24-28.52,43.32-37.08C77.01,4.28,100.19,0,127.64,0c18.36,0,35.65,1.78,51.88,5.35v40.47c-15.69-3.39-31.55-5.17-47.95-5.17-26.74,0-46.53,5.53-59.36,16.58-12.84,11.05-19.25,27.99-19.25,50.81s6.24,40.29,18.72,51.16c12.48,10.87,31.55,16.4,57.22,16.4,17.29,0,34.05-2.14,50.45-6.6v40.82c-16.76,4.46-34.76,6.77-53.66,6.77-41,0-72.2-8.91-93.59-26.74Z"/>
      <path class="cls-1" d="M267.22,174.35h113.56v39.58h-178.98v-27.28l111.95-144.58h-110.35V2.5h175.95v27.28l-112.13,144.58Z"/>
      <path class="cls-1" d="M464.39,175.95h119.26v37.79h-169.18V2.67h167.75v37.79h-117.84v46.53h102.86v37.79h-102.86v51.16Z"/>
      <path class="cls-1" d="M638.38,189.86c-21.39-17.83-32.09-44.92-32.09-81.11,0-23.17,4.81-42.78,14.62-59.01,9.8-16.22,24.24-28.52,43.32-37.08,19.07-8.38,42.25-12.66,69.7-12.66,18.36,0,35.65,1.78,51.88,5.35v40.47c-15.69-3.39-31.55-5.17-47.95-5.17-26.74,0-46.53,5.53-59.36,16.58-12.84,11.05-19.25,27.99-19.25,50.81s6.24,40.29,18.72,51.16c12.48,10.87,31.55,16.4,57.22,16.4,17.29,0,34.05-2.14,50.45-6.6v40.82c-16.76,4.46-34.76,6.77-53.66,6.77-41,0-72.2-8.91-93.59-26.74Z"/>
      <path class="cls-1" d="M817.36,213.92V2.67h50.45v81.65h101.08V2.67h50.45v211.25h-50.45v-86.46h-101.08v86.46h-50.45Z"/>
      <path class="cls-1" d="M1064.08,213.92V2.67h50.45v211.25h-50.45Z"/>
      <path class="cls-1" d="M1321.15,213.92l-20.14-55.98h-91.1l-20.14,55.98h-49.2L1219.35,2.67h72.56l78.97,211.25h-49.74ZM1223.46,120.15h64l-31.91-88.96-32.09,88.96Z"/>
    </g>
    <g>
      <path class="cls-1" d="M946.28,285.54c2.82-1.51,6.06-2.26,9.7-2.26,4.33,0,8.25,1.1,11.77,3.3,3.52,2.2,6.29,5.34,8.33,9.42,2.04,4.08,3.06,8.82,3.06,14.22s-1.02,10.16-3.06,14.27c-2.04,4.11-4.82,7.28-8.33,9.51-3.52,2.23-7.44,3.34-11.77,3.34-3.7,0-6.94-.74-9.7-2.21-2.76-1.47-4.93-3.44-6.5-5.89v7.35h-16.1v-69.69h16.1v24.58c1.51-2.45,3.67-4.43,6.5-5.93ZM959.42,300.75c-2.23-2.29-4.98-3.44-8.24-3.44s-5.92,1.16-8.15,3.48c-2.23,2.32-3.34,5.49-3.34,9.51s1.11,7.19,3.34,9.51c2.23,2.32,4.94,3.48,8.15,3.48s5.93-1.18,8.19-3.53c2.26-2.35,3.39-5.54,3.39-9.56s-1.12-7.17-3.34-9.46Z"/>
      <path class="cls-1" d="M1041.3,284.03l-32.96,77.5h-17.33l12.05-26.74-21.38-50.76h17.99l12.15,32.87,12.05-32.87h17.42Z"/>
      <path class="cls-1" d="M1084.24,323.39h28.44v13.18h-46.71v-12.24l28.25-40.68h-28.25v-13.18h46.71v12.24l-28.44,40.68Z"/>
      <path class="cls-1" d="M1137.39,332.9c-5.18-2.89-9.29-6.92-12.34-12.1-3.05-5.18-4.57-11-4.57-17.47s1.52-12.27,4.57-17.42c3.04-5.15,7.16-9.17,12.34-12.05,5.18-2.89,10.88-4.33,17.09-4.33s11.91,1.44,17.09,4.33c5.18,2.89,9.26,6.91,12.24,12.05,2.98,5.15,4.47,10.96,4.47,17.42s-1.51,12.29-4.52,17.47c-3.01,5.18-7.1,9.21-12.24,12.1-5.15,2.89-10.83,4.33-17.05,4.33s-11.91-1.44-17.09-4.33ZM1167.15,317.27c3.17-3.51,4.76-8.16,4.76-13.94s-1.59-10.5-4.76-13.98c-3.17-3.48-7.39-5.23-12.67-5.23s-9.59,1.73-12.76,5.18c-3.17,3.45-4.76,8.13-4.76,14.03s1.58,10.5,4.76,13.98c3.17,3.48,7.42,5.23,12.76,5.23s9.5-1.76,12.67-5.27Z"/>
      <path class="cls-1" d="M1256.37,336.58h-16.1l-26.93-40.78v40.78h-16.1v-66.11h16.1l26.93,40.96v-40.96h16.1v66.11Z"/>
      <path class="cls-1" d="M1284.15,283.37v13.37h21.56v12.43h-21.56v14.5h24.39v12.9h-40.49v-66.11h40.49v12.9h-24.39Z"/>
      <path class="cls-1" d="M1352.71,336.58l-13.75-24.95h-3.86v24.95h-16.1v-66.11h27.03c5.21,0,9.65.91,13.33,2.73,3.67,1.82,6.42,4.32,8.24,7.49,1.82,3.17,2.73,6.7,2.73,10.59,0,4.39-1.24,8.32-3.72,11.77-2.48,3.45-6.14,5.9-10.97,7.35l15.26,26.18h-18.18ZM1335.1,300.23h9.98c2.95,0,5.16-.72,6.64-2.17,1.47-1.44,2.21-3.48,2.21-6.12s-.74-4.49-2.21-5.93c-1.48-1.44-3.69-2.17-6.64-2.17h-9.98v16.39Z"/>
    </g>
  </g>
</svg>